<?xml version="1.0" encoding="utf-8"?>
<!-- Generator: Adobe Illustrator 23.0.1, SVG Export Plug-In . SVG Version: 6.00 Build 0)  -->
<svg version="1.1" id="Layer_1" xmlns="http://www.w3.org/2000/svg" xmlns:xlink="http://www.w3.org/1999/xlink" x="0px" y="0px"
	 viewBox="0 0 32.7 22.6" style="enable-background:new 0 0 32.7 22.6;" xml:space="preserve">
<style type="text/css">
	.st0{fill-rule:evenodd;clip-rule:evenodd;fill:#93A0BC;}
	.st1{fill-rule:evenodd;clip-rule:evenodd;fill:#B9C5E0;}
</style>
<g>
	<path class="st0" d="M2.6,22.6c-1.5,0-2.6-1.1-2.6-2.6V7.8h32.7v11.9c0,1.6-1.2,2.8-2.8,2.8h-22H7.1H2.6z M17,16.5
		c-0.7,0-1.3,0.6-1.3,1.3s0.6,1.3,1.3,1.3h12.2c0.7,0,1.3-0.6,1.3-1.3s-0.6-1.3-1.3-1.3H17z"/>
	<path class="st1" d="M0,2.8v1.6h32.7V2.8C32.7,1.2,31.5,0,30,0H2.8C1.2,0,0,1.2,0,2.8z"/>
</g>
</svg>
