<?xml version="1.0" encoding="utf-8"?>
<!-- Generator: Adobe Illustrator 23.0.1, SVG Export Plug-In . SVG Version: 6.00 Build 0)  -->
<svg version="1.1" id="Layer_1" xmlns="http://www.w3.org/2000/svg" xmlns:xlink="http://www.w3.org/1999/xlink" x="0px" y="0px"
	 viewBox="0 0 27 39" style="enable-background:new 0 0 27 39;" xml:space="preserve">
<style type="text/css">
	.st0{fill:#93A0BC;}
	.st1{fill:#B9C5E0;}
</style>
<path class="st0" d="M23.5,14.8H2.8H0.2v1.3c0,0.8,0.6,1.3,1.3,1.3h1.8L5.4,39H21l2.1-21.5h1.8c0.8,0,1.3-0.6,1.3-1.3v-1.3H23.5z
	 M15.9,29.4h-5.5v-2.7h5.5V29.4z M15.9,25.6h-5.5V23h5.5V25.6z"/>
<path class="st1" d="M2.8,14.8h20.7h2.7v-2.9c0-0.8-0.6-1.3-1.3-1.3h-0.5C23.7,5,18.9,0.7,13.2,0.7C7.4,0.7,2.7,5,2,10.6H1.5
	c-0.8,0-1.3,0.6-1.3,1.3v2.9L2.8,14.8L2.8,14.8z M13.2,3.4c4.3,0,7.8,3.1,8.4,7.2H4.7C5.4,6.5,8.9,3.4,13.2,3.4z"/>
</svg>
