<?xml version="1.0" encoding="utf-8"?>
<!-- Generator: Adobe Illustrator 23.0.1, SVG Export Plug-In . SVG Version: 6.00 Build 0)  -->
<svg version="1.1" id="Layer_1" xmlns="http://www.w3.org/2000/svg" xmlns:xlink="http://www.w3.org/1999/xlink" x="0px" y="0px"
	 viewBox="0 0 44 39" style="enable-background:new 0 0 44 39;" xml:space="preserve">
<style type="text/css">
	.st0{fill:#93A0BC;}
	.st1{fill:#B9C5E0;}
</style>
<path class="st0" d="M14.4,32.4c-1-0.5-1.7-1.6-1.7-2.9v-0.6c0-1.2,0.7-2.3,1.7-2.9v-1.7c0-3.6,1.9-6.8,4.8-8.5l0.3-3.6H2.1
	l2.2,24.4c0.1,0.9,0.9,1.6,1.8,1.6h9.6c0.1,0,0.2,0,0.4,0c-1-1-1.5-2.4-1.5-3.9V32.4L14.4,32.4z"/>
<path class="st1" d="M21.6,8.9V8.8c0-0.9-0.7-1.5-1.5-1.5h-8v-6C12,0.5,11.5,0,10.8,0c-0.7,0-1.2,0.5-1.2,1.2v6h-8
	C0.7,7.2,0,7.9,0,8.8v0.1c0,0.9,0.7,1.5,1.5,1.5h18.5C20.9,10.4,21.6,9.7,21.6,8.9z"/>
<path class="st0" d="M16.3,34.3c0,1,0.4,2,1,2.7c0.7,0.8,1.7,1.3,2.9,1.3h17.3c2.2,0,3.9-1.8,3.9-3.9v-2.5H16.3V34.3z"/>
<path class="st1" d="M39.9,27H17.6c-0.8,0-3,1.3-3,2.1v0.6c0,0.8,0.7,1.5,1.5,1.5h25.6c0.8,0,1.5-0.7,1.5-1.5v-0.6
	C43.1,28.3,40.7,27,39.9,27z"/>
<path class="st0" d="M16.3,24.3v1.7h25.2v-1.7c0-4.5-3.6-8.1-8.1-8.1h-9c-2,0-3.9,0.8-5.4,2C17.3,19.7,16.3,21.9,16.3,24.3z
	 M23.5,21.3c0.5,0,0.9,0.4,0.9,0.9c0,0.5-0.4,0.9-0.9,0.9c-0.5,0-0.9-0.4-0.9-0.9C22.6,21.7,23,21.3,23.5,21.3z"/>
</svg>
