<svg width="36" height="40" viewBox="0 0 36 40" fill="none" xmlns="http://www.w3.org/2000/svg">
<path d="M0 10.8439V15.5415C0 16.7269 0.965853 17.7366 2.19512 17.7366H16.6829V8.6488H2.19512C0.965853 8.6488 0 9.61466 0 10.8439Z" fill="#B9C5E0"/>
<path d="M33.7609 8.6488H19.317V17.6927H33.8048C34.9902 17.6927 35.9999 16.7268 35.9999 15.4976V10.8439C35.956 9.61466 34.9902 8.6488 33.7609 8.6488Z" fill="#B9C5E0"/>
<path d="M2.01941 38.1073C2.01941 38.8976 2.63404 39.5122 3.42429 39.5122H16.6389V19.3171H2.01941V38.1073Z" fill="#93A0BC"/>
<path d="M19.317 39.5122H32.5316C33.3219 39.5122 33.9365 38.8976 33.9365 38.1073V19.3171H19.317V39.5122Z" fill="#93A0BC"/>
<path d="M8.69257 7.11219C9.13159 7.37561 10.0535 7.68292 12.8633 7.68292C14.3999 7.68292 15.7609 7.59512 15.8048 7.59512C16.1121 7.55122 16.3755 7.37561 16.5511 7.11219C16.6828 6.84878 16.7267 6.49756 16.5511 6.23414C16.1121 5.4 13.9609 1.31707 12.4243 0.439024C11.8535 0.17561 11.195 0 10.5804 0C9.2194 0 7.94623 0.746341 7.24379 1.93171C6.23403 3.77561 6.89257 6.10244 8.69257 7.11219ZM8.82428 2.85366C9.1755 2.23902 9.83403 1.8439 10.5365 1.8439C10.8877 1.8439 11.195 1.93171 11.5023 2.10732C12.0731 2.41463 13.2145 4.12683 14.2243 5.88292C13.8292 5.88292 13.3462 5.92683 12.8633 5.92683C10.4487 5.92683 9.74623 5.66341 9.61452 5.57561C8.64867 5.00488 8.34135 3.77561 8.82428 2.85366Z" fill="#B9C5E0"/>
<path d="M20.1512 7.59512C20.1951 7.59512 21.556 7.68292 23.0926 7.68292C25.8585 7.68292 26.7804 7.3317 27.2633 7.11219C29.1072 6.10244 29.7658 3.77561 28.7121 1.93171C28.0536 0.746341 26.7804 0 25.3755 0C24.717 0 24.1024 0.17561 23.5316 0.482927C21.9951 1.36098 19.7999 5.4439 19.4048 6.27805C19.2731 6.54146 19.2731 6.89268 19.4048 7.15609C19.5804 7.41951 19.8438 7.59512 20.1512 7.59512ZM24.4536 2.10732C24.7609 1.93171 25.0682 1.8439 25.4194 1.8439C26.1219 1.8439 26.7804 2.23902 27.1316 2.85366C27.6585 3.81951 27.3072 5.00488 26.3853 5.53171C26.2536 5.61951 25.5511 5.88292 23.1365 5.88292C22.6536 5.88292 22.1707 5.88292 21.7755 5.83902C22.6975 4.08293 23.8829 2.41463 24.4536 2.10732Z" fill="#B9C5E0"/>
</svg>
