<?xml version="1.0" encoding="utf-8"?>
<!-- Generator: Adobe Illustrator 23.0.1, SVG Export Plug-In . SVG Version: 6.00 Build 0)  -->
<svg version="1.1" id="Layer_1" xmlns="http://www.w3.org/2000/svg" xmlns:xlink="http://www.w3.org/1999/xlink" x="0px" y="0px"
	 viewBox="0 0 37.3 24.9" style="enable-background:new 0 0 37.3 24.9;" xml:space="preserve">
<style type="text/css">
	.st0{fill:#93A0BC;}
	.st1{fill:#B9C5E0;}
</style>
<g>
	<g>
		<path class="st0" d="M15.4,18.1h19.9c-0.8-5.3-4.2-9.7-8.8-12.1L15.4,18.1z"/>
		<path class="st0" d="M22.9,4c-0.5-2.3-2.2-4-4.2-4c-2.2,0-4,2-4.3,4.6C8,6.3,3.2,11.6,2.2,18.1H10L22.9,4z M18.7,2.3
			c0.7,0,1.4,0.7,1.7,1.7c-0.6,0.1-1.2,0-1.7,0c-0.6,0-1.1,0-1.7,0C17.3,3,18,2.3,18.7,2.3z"/>
	</g>
	<g>
		<path class="st1" d="M7.6,20.7H2.2C1,20.7,0,21.6,0,22.8c0,1.1,1,2.1,2.2,2.1h1.6L7.6,20.7z"/>
		<path class="st1" d="M35.2,20.7H13l-3.8,4.2h26c1.1,0,2.1-1,2.2-2.1C37.4,21.7,36.4,20.7,35.2,20.7z"/>
	</g>
</g>
<polygon class="st0" points="11,20.7 7.2,24.9 5.8,24.9 9.7,20.7 "/>
<path class="st0" d="M25.2,5.2L13.4,18.1H12L24.2,4.7C24.5,4.9,24.9,5,25.2,5.2z"/>
</svg>
