<?xml version="1.0" encoding="utf-8"?>
<!-- Generator: Adobe Illustrator 23.0.1, SVG Export Plug-In . SVG Version: 6.00 Build 0)  -->
<svg version="1.1" id="Layer_1" xmlns="http://www.w3.org/2000/svg" xmlns:xlink="http://www.w3.org/1999/xlink" x="0px" y="0px"
	 viewBox="0 0 32 35" style="enable-background:new 0 0 32 35;" xml:space="preserve">
<style type="text/css">
	.st0{fill:#B9C5E0;}
	.st1{fill:#93A0BC;}
</style>
<path class="st0" d="M2.4,24.4h27.1c0.6,0,1.2-0.2,1.6-0.6c0.7-0.6,1-2.4,0.8-3.4l-0.1-0.2h-0.1c-0.6,0-1.1-0.1-1.6-0.3h-0.1
	c-0.2-0.1-0.3-0.1-0.4-0.2c-0.1,0-0.2-0.1-0.2-0.1c-0.1,0-0.2-0.1-0.3-0.2s-0.3-0.2-0.3-0.2l-0.1-0.1c-0.3-0.2-0.5-0.4-0.8-0.7h-0.3
	c-0.3,0.3-0.5,0.5-0.8,0.7l-0.1,0.1c-0.1,0.1-0.3,0.2-0.3,0.3c-0.1,0-0.2,0.1-0.2,0.1c-0.1,0.1-0.2,0.1-0.3,0.2
	c-0.1,0-0.2,0.1-0.3,0.1c-0.1,0-0.2,0.1-0.3,0.1c-0.1,0-0.3,0.1-0.3,0.1c-0.1,0-0.2,0-0.3,0.1c-0.1,0-0.3,0.1-0.3,0.1
	c-0.1,0-0.2,0-0.2,0c-0.2,0-0.3,0-0.5,0h-0.1h-0.1c-0.2,0-0.3,0-0.5,0c-0.1,0-0.2,0-0.2,0c-0.1,0-0.3,0-0.3-0.1
	c-0.1,0-0.2,0-0.3-0.1c-0.1,0-0.3-0.1-0.3-0.1c-0.1,0-0.2-0.1-0.3-0.1c-0.1,0-0.2-0.1-0.3-0.1s-0.2-0.1-0.3-0.2
	c-0.1,0-0.2-0.1-0.2-0.1c-0.1-0.1-0.3-0.2-0.3-0.2l-0.1-0.1c-0.3-0.2-0.5-0.4-0.8-0.7h-0.3c-0.3,0.3-0.5,0.5-0.8,0.7L19,19.4
	c-0.1,0.1-0.2,0.2-0.3,0.2c-0.1,0-0.2,0.1-0.2,0.1c-0.1,0.1-0.2,0.1-0.3,0.2c-0.1,0.1-0.2,0.1-0.3,0.1c-0.1,0-0.2,0.1-0.3,0.1
	s-0.3,0.1-0.3,0.1s-0.2,0-0.2,0.1c-0.1,0-0.3,0.1-0.3,0.1s-0.2,0-0.2,0c-0.2,0-0.3,0-0.5,0h-0.1h-0.1c-0.2,0-0.3,0-0.5,0
	c-0.1,0-0.2,0-0.2,0c-0.1,0-0.3,0-0.3-0.1c-0.1,0-0.2,0-0.3-0.1c-0.1,0-0.3-0.1-0.3-0.1c-0.1,0-0.2-0.1-0.3-0.1
	c-0.1,0-0.2-0.1-0.3-0.1s-0.2-0.1-0.3-0.2c-0.1,0-0.2-0.1-0.2-0.1c-0.1-0.1-0.3-0.2-0.3-0.3l-0.1-0.1c-0.3-0.2-0.5-0.4-0.8-0.7h-0.3
	c-0.3,0.3-0.5,0.5-0.8,0.7l-0.1,0.1c-0.1,0.1-0.3,0.2-0.3,0.3c-0.1,0-0.2,0.1-0.2,0.1c-0.1,0.1-0.2,0.1-0.3,0.2
	c-0.1,0-0.2,0.1-0.3,0.1c-0.1,0-0.2,0.1-0.3,0.1c-0.1,0-0.3,0.1-0.3,0.1c-0.1,0-0.2,0-0.3,0.1c-0.1,0-0.3,0.1-0.3,0.1
	c-0.1,0-0.2,0-0.2,0c-0.2,0-0.3,0-0.5,0H8.3H8.3c-0.2,0-0.3,0-0.5,0c-0.1,0-0.2,0-0.2,0c-0.1,0-0.3,0-0.3-0.1c-0.1,0-0.2,0-0.3-0.1
	c-0.1,0-0.3-0.1-0.3-0.1s-0.2-0.1-0.3-0.1s-0.2-0.1-0.3-0.1c-0.1,0-0.2-0.1-0.3-0.2c-0.1,0-0.2-0.1-0.2-0.1
	c-0.1-0.1-0.3-0.2-0.3-0.2l-0.1-0.1c-0.3-0.2-0.5-0.4-0.8-0.7H4.3c-0.3,0.3-0.5,0.5-0.8,0.7c-0.2,0.1-0.3,0.2-0.4,0.3
	c0,0-0.1,0-0.1,0.1c-0.2,0.1-0.3,0.2-0.4,0.2c-0.1,0-0.1,0-0.2,0.1C2.4,20,2.2,20,2.1,20.1c-0.1,0-0.2,0-0.2,0.1
	c-0.1,0-0.3,0.1-0.3,0.1s-0.2,0-0.3,0.1c-0.1,0-0.2,0-0.3,0s-0.3,0-0.3,0s-0.2,0-0.3,0l-0.1,0.3c-0.3,1,0.1,2.9,0.8,3.4
	C1.3,24.2,1.8,24.4,2.4,24.4z"/>
<path class="st0" d="M5.3,17.1c0.3,0.4,0.7,0.8,1.1,0.9c0.2,0.1,0.4,0.2,0.7,0.3c0.1,0,0.1,0,0.2,0c0.3,0.2,0.5,0.2,0.8,0.2
	s0.5,0,0.8-0.1c0.1,0,0.1,0,0.2,0c0.3-0.1,0.4-0.2,0.7-0.3c0.5-0.3,0.8-0.6,1.1-0.9l0.2-0.3c0.2-0.3,0.3-0.6,0.3-1H4.9
	c0,0.3,0.1,0.7,0.3,1L5.3,17.1z"/>
<path class="st0" d="M0.1,18.5c0.3,0,0.6,0,0.8-0.1c0.1,0,0.1,0,0.2,0c0.3-0.1,0.4-0.2,0.7-0.3c0.5-0.3,0.8-0.6,1.1-0.9L3.1,17
	c0.2-0.3,0.3-0.6,0.3-1H0.8c-0.1,0.5-0.3,1-0.4,1.4C0.3,17.7,0.1,18.2,0.1,18.5C0,18.5,0,18.5,0.1,18.5z"/>
<path class="st0" d="M13.2,17.1c0.3,0.4,0.7,0.8,1.1,0.9c0.2,0.1,0.4,0.2,0.7,0.3c0.1,0,0.1,0,0.2,0c0.3,0.2,0.5,0.2,0.8,0.2
	c0.3,0,0.5,0,0.8-0.1c0.1,0,0.1,0,0.2,0c0.3-0.1,0.4-0.2,0.7-0.3c0.5-0.3,0.8-0.6,1.1-0.9l0.2-0.3c0.2-0.3,0.3-0.6,0.3-1h-6.2
	c0,0.3,0.1,0.7,0.3,1L13.2,17.1z"/>
<path class="st0" d="M21.1,17.1c0.3,0.4,0.7,0.8,1.1,0.9c0.2,0.1,0.4,0.2,0.7,0.3c0.1,0,0.1,0,0.2,0c0.3,0.1,0.5,0.1,0.8,0.1
	c0.3,0,0.5,0,0.8-0.1c0.1,0,0.1,0,0.2,0c0.3-0.1,0.4-0.2,0.7-0.3c0.5-0.3,0.8-0.6,1.1-0.9l0.2-0.3c0.2-0.3,0.3-0.6,0.3-1h-6.2
	c0,0.3,0.1,0.7,0.3,1L21.1,17.1z"/>
<path class="st0" d="M28.8,17l0.2,0.3c0.3,0.4,0.7,0.8,1.1,0.9c0.2,0.1,0.4,0.2,0.7,0.3c0.1,0,0.1,0,0.2,0c0.3,0.1,0.5,0.1,0.8,0.1
	c0.1,0,0.1,0,0.1,0c0-0.3-0.2-0.8-0.3-1.1C31.3,17,31.1,16.5,31,16h-2.5C28.6,16.3,28.7,16.6,28.8,17z"/>
<path class="st1" d="M2.5,32.2c0,1.4,1.1,2.5,2.5,2.5h21.8c1.4,0,2.5-1.1,2.5-2.5v-5.9H2.5V32.2L2.5,32.2z"/>
<path class="st1" d="M15.9,0C7.8,0,1.2,6.3,0.8,14.3H31C30.6,6.3,24,0,15.9,0z"/>
</svg>
