<svg width="31" height="35" viewBox="0 0 31 35" fill="none" xmlns="http://www.w3.org/2000/svg">
<path d="M12.1 21.8V32.9C12.1 33.9 11.4 34.6 10.4 34.6H6.9C5.9 34.6 5.2 33.9 5.2 32.9V21.8C2.1 20.4 0 17.3 0 13.8V3.5C0 1.6 1.5 0 3.4 0V12.1C3.4 13.1 4.1 13.8 5.1 13.8C6.1 13.8 6.8 13.1 6.8 12.1V0H10.2V12.1C10.2 13.1 10.9 13.8 11.9 13.8C12.9 13.8 13.6 13.1 13.6 12.1V0C15.5 0 17 1.6 17 3.5V13.9C17.2 17.3 15.2 20.4 12.1 21.8Z" fill="#E54600"/>
<path d="M29.2999 34.6H25.8999C24.8999 34.6 24.1999 33.9 24.1999 32.9V24.2C22.2999 24.2 20.7999 22.6 20.7999 20.7V10.4C20.6999 4.7 25.2999 0 30.9999 0V32.9C30.9999 34 30.2999 34.6 29.2999 34.6Z" fill="#FFB392"/>
</svg>
