<?xml version="1.0" encoding="utf-8"?>
<!-- Generator: Adobe Illustrator 23.0.1, SVG Export Plug-In . SVG Version: 6.00 Build 0)  -->
<svg version="1.1" id="Layer_1" xmlns="http://www.w3.org/2000/svg" xmlns:xlink="http://www.w3.org/1999/xlink" x="0px" y="0px"
	 viewBox="0 0 100 100" style="enable-background:new 0 0 100 100;" xml:space="preserve">
<style type="text/css">
	.st0{fill:#E71F22;}
	.st1{fill:#F79410;}
	.st2{fill:#F1511B;}
</style>
<g>
	<path class="st0" d="M38.8,50c0-9.2,4.4-17.4,11.2-22.6c-4.8-3.6-10.7-5.8-17.2-5.8C17.1,21.6,4.4,34.3,4.4,50
		c0,15.7,12.7,28.4,28.4,28.4c6.5,0,12.4-2.2,17.2-5.8C43.2,67.4,38.8,59.2,38.8,50z"/>
	<path class="st1" d="M67.2,21.6c-6.5,0-12.4,2.2-17.2,5.8c6.8,5.2,11.2,13.4,11.2,22.6c0,9.2-4.4,17.4-11.2,22.6
		c4.8,3.6,10.7,5.8,17.2,5.8c15.7,0,28.4-12.7,28.4-28.4C95.6,34.3,82.9,21.6,67.2,21.6z"/>
	<ellipse class="st2" cx="50" cy="50" rx="11.2" ry="22.6"/>
</g>
</svg>
