<svg width="26" height="35" viewBox="0 0 26 35" fill="none" xmlns="http://www.w3.org/2000/svg">
<path d="M13 0C5.80667 0 0 5.80667 0 13C0 24.2667 11.2667 34.6667 13 34.6667C14.7333 34.6667 26 24.2667 26 13C26 5.80667 20.1933 0 13 0ZM13 19.5C9.44667 19.5 6.5 16.5533 6.5 13C6.5 9.44667 9.44667 6.5 13 6.5C16.5533 6.5 19.5 9.44667 19.5 13C19.5 16.5533 16.5533 19.5 13 19.5Z" fill="#E54600"/>
<path d="M13 16.0333C14.6753 16.0333 16.0333 14.6753 16.0333 13C16.0333 11.3247 14.6753 9.96667 13 9.96667C11.3247 9.96667 9.96667 11.3247 9.96667 13C9.96667 14.6753 11.3247 16.0333 13 16.0333Z" fill="#FFB392"/>
</svg>
