<?xml version="1.0" encoding="utf-8"?>
<!-- Generator: Adobe Illustrator 23.0.1, SVG Export Plug-In . SVG Version: 6.00 Build 0)  -->
<svg version="1.1" id="Layer_1" xmlns="http://www.w3.org/2000/svg" xmlns:xlink="http://www.w3.org/1999/xlink" x="0px" y="0px"
	 viewBox="0 0 37.3 24.9" style="enable-background:new 0 0 37.3 24.9;" xml:space="preserve">
<style type="text/css">
	.st0{fill:#FFB392;}
	.st1{fill:#E54600;}
</style>
<g>
	<path class="st0" d="M35.2,24.9h-33c-1.2,0-2.2-1-2.2-2.1c0-1.2,1-2.1,2.2-2.1h33c1.2,0,2.2,1,2.2,2.1
		C37.3,23.9,36.3,24.9,35.2,24.9z"/>
	<path class="st1" d="M23,4.6C22.7,2,20.9,0,18.7,0s-4,2-4.3,4.6c-6.4,1.7-11.2,7-12.2,13.5h33.1C34.3,11.6,29.4,6.3,23,4.6z
		 M18.7,4c-0.6,0-1.1,0-1.7,0c0.3-1,1-1.7,1.7-1.7c0.7,0,1.4,0.7,1.7,1.7C19.8,4.1,19.2,4,18.7,4z"/>
</g>
</svg>
