<svg width="29" height="31" viewBox="0 0 29 31" fill="none" xmlns="http://www.w3.org/2000/svg">
<path d="M14.0134 15.5615C18.3458 15.5615 21.7941 12.1132 21.7941 7.78076C21.7941 3.44831 18.3458 3.05176e-05 14.0134 3.05176e-05C9.68094 3.05176e-05 6.23267 3.44831 6.23267 7.78076C6.23267 12.2016 9.68094 15.5615 14.0134 15.5615Z" fill="#E54600"/>
<path d="M26.0386 30.5036H1.98909C0.751248 30.5036 -0.221343 29.4426 0.0439086 28.2932C1.10492 21.5735 7.02888 16.3569 14.0138 16.3569C17.2853 16.3569 20.3799 17.5063 22.8556 19.4515C25.5081 21.6619 27.4533 24.7565 28.0722 28.2932C28.249 29.5311 27.2764 30.5036 26.0386 30.5036Z" fill="#E54600"/>
<path d="M26.0378 30.5042H9.85742C11.1837 24.4034 16.4003 19.8057 22.7663 19.3636C25.4189 21.574 27.3641 24.6686 27.983 28.2053C28.2482 29.5316 27.2756 30.5042 26.0378 30.5042Z" fill="#FFB392"/>
</svg>
