<?xml version="1.0" encoding="utf-8"?>
<!-- Generator: Adobe Illustrator 23.0.1, SVG Export Plug-In . SVG Version: 6.00 Build 0)  -->
<svg version="1.1" id="Layer_1" xmlns="http://www.w3.org/2000/svg" xmlns:xlink="http://www.w3.org/1999/xlink" x="0px" y="0px"
	 viewBox="0 0 100 100" style="enable-background:new 0 0 100 100;" xml:space="preserve">
<style type="text/css">
	.st0{fill:#2566AF;}
	.st1{fill:#E6A540;}
</style>
<g>
	<g>
		<path class="st0" d="M44,64.1h-7.3L41.3,36h7.3L44,64.1z M30.5,36l-7,19.3l-0.8-4.2l0,0l-2.5-12.7c0,0-0.3-2.5-3.5-2.5H5.3
			l-0.1,0.5c0,0,3.5,0.7,7.7,3.2l6.4,24.4h7.6L38.4,36L30.5,36L30.5,36z M88.2,64.1h6.7L89,36h-5.9c-2.7,0-3.4,2.1-3.4,2.1l-10.9,26
			h7.6l1.5-4.2h9.3L88.2,64.1L88.2,64.1z M80.1,54.1l3.8-10.5l2.2,10.5H80.1z M69.4,42.7l1-6c0,0-3.2-1.2-6.6-1.2
			c-3.6,0-12.3,1.6-12.3,9.3c0,7.3,10.1,7.4,10.1,11.2s-9.1,3.1-12.1,0.7L48.5,63c0,0,3.3,1.6,8.3,1.6c5,0,12.5-2.6,12.5-9.6
			c0-7.3-10.2-8-10.2-11.2C59.1,40.6,66.3,41,69.4,42.7L69.4,42.7z"/>
	</g>
	<path class="st1" d="M22.7,51.2l-2.5-12.7c0,0-0.3-2.5-3.5-2.5H5.3l-0.1,0.5c0,0,5.5,1.1,10.9,5.5C21.1,46,22.7,51.2,22.7,51.2z"/>
</g>
</svg>
