<?xml version="1.0" encoding="utf-8"?>
<!-- Generator: Adobe Illustrator 23.0.1, SVG Export Plug-In . SVG Version: 6.00 Build 0)  -->
<svg version="1.1" id="Layer_1" xmlns="http://www.w3.org/2000/svg" xmlns:xlink="http://www.w3.org/1999/xlink" x="0px" y="0px"
	 viewBox="0 0 100 100" style="enable-background:new 0 0 100 100;" xml:space="preserve">
<style type="text/css">
	.st0{fill:#FCF3ED;}
	.st1{fill:#FCA275;}
</style>
<rect class="st0" width="100" height="100"/>
<g>
	<path class="st1" d="M68.3,43.2L61.7,38c-0.3-0.2-0.6-0.3-1-0.3H50H39.3c-0.4,0-0.7,0.1-1,0.3l-6.6,5.2c-0.3,0.3-0.5,0.7-0.5,1.1
		v4.5c0,0.4,0.3,0.7,0.7,0.7h36.2c0.4,0,0.7-0.3,0.7-0.7v-4.5C68.9,43.9,68.7,43.5,68.3,43.2z"/>
	<path class="st1" d="M39.8,33c-0.2,0-0.4,0.2-0.4,0.4v1.4c0,0.2,0.2,0.4,0.4,0.4h20.4c0.2,0,0.4-0.2,0.4-0.4v-1.4
		c0-0.2-0.2-0.4-0.4-0.4H39.8z"/>
	<path class="st1" d="M64.8,66.4V52.5c0-0.3-0.3-0.6-0.6-0.6h-3V67h3C64.5,67,64.8,66.7,64.8,66.4z"/>
	<path class="st1" d="M35.8,51.9c-0.3,0-0.6,0.3-0.6,0.6v13.9c0,0.3,0.3,0.6,0.6,0.6h19.1V51.9h-4.3v7.3c0,0.5-0.4,0.9-0.9,0.9h-9.3
		c-0.5,0-0.9-0.4-0.9-0.9v-7.3H35.8z"/>
</g>
</svg>
