<svg width="747" height="493" viewBox="0 0 747 493" fill="none" xmlns="http://www.w3.org/2000/svg">
<path fill-rule="evenodd" clip-rule="evenodd" d="M205.908 439.51H576.752C594.025 439.51 608.028 425.501 608.028 408.22C608.028 390.939 594.025 376.93 576.752 376.93C576.752 376.93 549.944 362.921 549.944 345.64C549.944 328.359 567.599 314.35 589.379 314.35H634.836C652.109 314.35 666.112 300.341 666.112 283.06C666.112 265.779 652.109 251.77 634.836 251.77H536.54C553.813 251.77 567.816 237.761 567.816 220.48C567.816 203.199 553.813 189.19 536.54 189.19H715.26C732.533 189.19 746.536 175.181 746.536 157.9C746.536 140.619 732.533 126.61 715.26 126.61H277.396C260.123 126.61 246.12 140.619 246.12 157.9C246.12 175.181 260.123 189.19 277.396 189.19H98.6759C81.4026 189.19 67.3999 203.199 67.3999 220.48C67.3999 237.761 81.4026 251.77 98.6759 251.77H210.376C227.649 251.77 241.652 265.779 241.652 283.06C241.652 300.341 227.649 314.35 210.376 314.35H31.6559C14.3826 314.35 0.379883 328.359 0.379883 345.64C0.379883 362.921 14.3826 376.93 31.6559 376.93H205.908C188.635 376.93 174.632 390.939 174.632 408.22C174.632 425.501 188.635 439.51 205.908 439.51ZM683.984 283.06C683.984 300.341 697.987 314.35 715.26 314.35C732.533 314.35 746.536 300.341 746.536 283.06C746.536 265.779 732.533 251.77 715.26 251.77C697.987 251.77 683.984 265.779 683.984 283.06Z" fill="#FFF0E5"/>
<mask id="path-2-outside-1" maskUnits="userSpaceOnUse" x="215.78" y="176.72" width="307" height="316" fill="black">
<rect fill="white" x="215.78" y="176.72" width="307" height="316"/>
<path fill-rule="evenodd" clip-rule="evenodd" d="M295.268 399.241C294.526 399.267 293.781 399.28 293.034 399.28C254.786 399.28 223.78 365.258 223.78 323.29C223.78 281.322 254.786 247.3 293.034 247.3C293.781 247.3 294.526 247.313 295.268 247.339V202.6C295.268 192.725 303.269 184.72 313.14 184.72H496.328C506.198 184.72 514.2 192.725 514.2 202.6V475.27C514.2 480.207 510.199 484.21 505.264 484.21H304.204C299.269 484.21 295.268 480.207 295.268 475.27V399.241V399.241ZM295.268 361.196V285.384C294.529 285.325 293.785 285.295 293.034 285.295C275.185 285.295 260.715 302.306 260.715 323.29C260.715 344.274 275.185 361.285 293.034 361.285C293.785 361.285 294.529 361.255 295.268 361.196V361.196Z"/>
</mask>
<path fill-rule="evenodd" clip-rule="evenodd" d="M295.268 399.241C294.526 399.267 293.781 399.28 293.034 399.28C254.786 399.28 223.78 365.258 223.78 323.29C223.78 281.322 254.786 247.3 293.034 247.3C293.781 247.3 294.526 247.313 295.268 247.339V202.6C295.268 192.725 303.269 184.72 313.14 184.72H496.328C506.198 184.72 514.2 192.725 514.2 202.6V475.27C514.2 480.207 510.199 484.21 505.264 484.21H304.204C299.269 484.21 295.268 480.207 295.268 475.27V399.241V399.241ZM295.268 361.196V285.384C294.529 285.325 293.785 285.295 293.034 285.295C275.185 285.295 260.715 302.306 260.715 323.29C260.715 344.274 275.185 361.285 293.034 361.285C293.785 361.285 294.529 361.255 295.268 361.196V361.196Z" fill="white"/>
<path d="M293.034 399.28L293.034 391.28L293.034 399.28ZM295.268 247.339L294.99 255.334L303.268 255.622V247.339H295.268ZM295.268 285.384H303.268V278.001L295.908 277.41L295.268 285.384ZM294.99 391.246C294.341 391.269 293.689 391.28 293.034 391.28V407.28C293.874 407.28 294.711 407.265 295.546 407.236L294.99 391.246ZM293.034 391.28C259.887 391.28 231.78 361.555 231.78 323.29H215.78C215.78 368.961 249.685 407.28 293.034 407.28L293.034 391.28ZM231.78 323.29C231.78 285.025 259.887 255.3 293.034 255.3V239.3C249.685 239.3 215.78 277.619 215.78 323.29H231.78ZM293.034 255.3C293.689 255.3 294.341 255.311 294.99 255.334L295.546 239.344C294.711 239.315 293.874 239.3 293.034 239.3V255.3ZM303.268 247.339V202.6H287.268V247.339H303.268ZM303.268 202.6C303.268 197.14 307.691 192.72 313.14 192.72V176.72C298.848 176.72 287.268 188.31 287.268 202.6H303.268ZM313.14 192.72H496.328V176.72H313.14V192.72ZM496.328 192.72C501.777 192.72 506.2 197.14 506.2 202.6H522.2C522.2 188.31 510.62 176.72 496.328 176.72V192.72ZM506.2 202.6V475.27H522.2V202.6H506.2ZM506.2 475.27C506.2 475.792 505.777 476.21 505.264 476.21V492.21C514.621 492.21 522.2 484.622 522.2 475.27H506.2ZM505.264 476.21H304.204V492.21H505.264V476.21ZM304.204 476.21C303.69 476.21 303.268 475.792 303.268 475.27H287.268C287.268 484.622 294.847 492.21 304.204 492.21V476.21ZM303.268 475.27V399.241H287.268V475.27H303.268ZM303.268 361.196V285.384H287.268V361.196H303.268ZM295.908 277.41C294.957 277.334 293.998 277.295 293.034 277.295V293.295C293.571 293.295 294.102 293.317 294.628 293.359L295.908 277.41ZM293.034 277.295C269.601 277.295 252.715 299.15 252.715 323.29H268.715C268.715 305.461 280.768 293.295 293.034 293.295V277.295ZM252.715 323.29C252.715 347.43 269.601 369.285 293.034 369.285V353.285C280.768 353.285 268.715 341.119 268.715 323.29H252.715ZM293.034 369.285C293.998 369.285 294.957 369.246 295.908 369.17L294.628 353.221C294.102 353.263 293.571 353.285 293.034 353.285V369.285Z" fill="#E86203" mask="url(#path-2-outside-1)"/>
<path d="M473.988 223.012C475.507 223.012 476.738 224.243 476.738 225.762H479.238C479.238 222.862 476.888 220.512 473.988 220.512V223.012ZM471.238 225.762C471.238 224.243 472.469 223.012 473.988 223.012V220.512C471.089 220.512 468.738 222.862 468.738 225.762H471.238ZM471.238 307.645V225.762H468.738V307.645H471.238ZM473.988 310.395C472.469 310.395 471.238 309.164 471.238 307.645H468.738C468.738 310.544 471.089 312.895 473.988 312.895V310.395ZM476.738 307.645C476.738 309.164 475.507 310.395 473.988 310.395V312.895C476.888 312.895 479.238 310.544 479.238 307.645H476.738ZM476.738 225.762V307.645H479.238V225.762H476.738ZM473.988 333.042H476.488C476.488 331.661 475.369 330.542 473.988 330.542V333.042ZM473.988 333.042V330.542C472.608 330.542 471.488 331.661 471.488 333.042H473.988ZM473.988 354.244V333.042H471.488V354.244H473.988ZM473.988 354.244H471.488C471.488 355.625 472.608 356.744 473.988 356.744V354.244ZM473.988 354.244V356.744C475.369 356.744 476.488 355.625 476.488 354.244H473.988ZM473.988 333.042V354.244H476.488V333.042H473.988Z" fill="#FE8A38"/>
<path d="M137.178 450.685C137.178 450.823 137.066 450.935 136.928 450.935V447.935C135.409 447.935 134.178 449.166 134.178 450.685H137.178ZM136.928 450.435C137.066 450.435 137.178 450.547 137.178 450.685H134.178C134.178 452.204 135.409 453.435 136.928 453.435V450.435ZM167.632 450.435H136.928V453.435H167.632V450.435ZM167.382 450.685C167.382 450.547 167.494 450.435 167.632 450.435V453.435C169.151 453.435 170.382 452.204 170.382 450.685H167.382ZM167.632 450.935C167.494 450.935 167.382 450.823 167.382 450.685H170.382C170.382 449.166 169.151 447.935 167.632 447.935V450.935ZM136.928 450.935H167.632V447.935H136.928V450.935ZM646.53 450.685C646.53 450.823 646.418 450.935 646.28 450.935V447.935C644.761 447.935 643.53 449.166 643.53 450.685H646.53ZM646.28 450.435C646.418 450.435 646.53 450.547 646.53 450.685H643.53C643.53 452.204 644.761 453.435 646.28 453.435V450.435ZM659.112 450.435H646.28V453.435H659.112V450.435ZM658.862 450.685C658.862 450.547 658.974 450.435 659.112 450.435V453.435C660.631 453.435 661.862 452.204 661.862 450.685H658.862ZM659.112 450.935C658.974 450.935 658.862 450.823 658.862 450.685H661.862C661.862 449.166 660.631 447.935 659.112 447.935V450.935ZM646.28 450.935H659.112V447.935H646.28V450.935ZM525.072 447.935C523.553 447.935 522.322 449.166 522.322 450.685H525.322C525.322 450.823 525.21 450.935 525.072 450.935V447.935ZM625.279 447.935H525.072V450.935H625.279V447.935ZM628.029 450.685C628.029 449.166 626.798 447.935 625.279 447.935V450.935C625.141 450.935 625.029 450.823 625.029 450.685H628.029ZM625.279 453.435C626.798 453.435 628.029 452.204 628.029 450.685H625.029C625.029 450.547 625.141 450.435 625.279 450.435V453.435ZM525.072 453.435H625.279V450.435H525.072V453.435ZM522.322 450.685C522.322 452.204 523.553 453.435 525.072 453.435V450.435C525.21 450.435 525.322 450.547 525.322 450.685H522.322ZM194.69 450.685C194.69 450.823 194.578 450.935 194.44 450.935V447.935C192.921 447.935 191.69 449.166 191.69 450.685H194.69ZM194.44 450.435C194.578 450.435 194.69 450.547 194.69 450.685H191.69C191.69 452.204 192.921 453.435 194.44 453.435V450.435ZM290.297 450.435H194.44V453.435H290.297V450.435ZM290.047 450.685C290.047 450.547 290.159 450.435 290.297 450.435V453.435C291.816 453.435 293.047 452.204 293.047 450.685H290.047ZM290.297 450.935C290.159 450.935 290.047 450.823 290.047 450.685H293.047C293.047 449.166 291.816 447.935 290.297 447.935V450.935ZM194.44 450.935H290.297V447.935H194.44V450.935Z" fill="#E86203"/>
<path d="M415.904 1.45001C415.904 1.45001 398.032 29.7018 398.032 50.62C398.032 75.456 418.825 86.5786 418.825 113.482C418.825 133.963 398.032 154.155 398.032 154.155" stroke="#FE8A38" stroke-width="2.5" stroke-linecap="round"/>
<path d="M362.288 50.62C358.39 75.2617 375.692 79.819 375.692 101.911C375.692 118.731 362.288 135.55 362.288 135.55" stroke="#FE8A38" stroke-width="2.5" stroke-linecap="round"/>
<path d="M446.265 39.3293C440.363 54.6131 443.679 63.929 446.265 69.4124C451.794 81.133 460.584 91.2505 460.584 103.177C460.584 123.956 446.265 143.172 446.265 143.172" stroke="#FE8A38" stroke-width="2.5" stroke-linecap="round"/>
</svg>
