<?xml version="1.0" encoding="utf-8"?>
<!-- Generator: Adobe Illustrator 23.0.1, SVG Export Plug-In . SVG Version: 6.00 Build 0)  -->
<svg version="1.1" id="Layer_1" xmlns="http://www.w3.org/2000/svg" xmlns:xlink="http://www.w3.org/1999/xlink" x="0px" y="0px"
	 viewBox="0 0 335.2 68.9" style="enable-background:new 0 0 335.2 68.9;" xml:space="preserve">
<style type="text/css">
	.st0{fill:#FFFFFF;}
</style>
<g>
	<g>
		<path class="st0" d="M91.1,21.2h1.2c4.9,0,8.9,2,11.7,6c-0.2,0.3-2.5,1.9-7,4.9c-1.4-1.9-3.2-2.8-5.4-2.8c-2.6,0-4.5,1.5-5.5,4.5
			L86,34.9v0.9c0,2.5,1.3,4.3,4,5.5c0.5,0.1,0.9,0.2,1.3,0.2h0.9c1.7,0,3.4-0.9,5.2-2.7c4.3,2.8,6.6,4.4,6.8,4.7
			c-2.2,2.8-4.8,4.6-7.8,5.6c-1.9,0.4-3.7,0.6-5.2,0.6c-5.8,0-10.3-2.5-13.6-7.6c-1.1-2.2-1.6-4.3-1.6-6.4v-0.4
			c0-4.6,2.1-8.4,6.4-11.5C85.2,22.1,88.1,21.2,91.1,21.2z"/>
		<path class="st0" d="M134.4,48.7h-9.6V35c0-2.5-0.9-4.1-2.7-4.7c-0.4-0.1-0.7-0.1-0.9-0.1h-0.6c-1.8,0-3,1.1-3.6,3.2
			c-0.1,0.3-0.1,0.6-0.1,0.9v14.4h-9.7V15.2h9.7v10.6c2.3-2.8,5-4.2,7.9-4.2h0.7c4.2,0,7.1,2.1,8.5,6.4c0.3,1.3,0.4,2.4,0.4,3.5
			V48.7z"/>
		<path class="st0" d="M152,21.6c7.2,0,11.8,3.7,13.7,11.2c0.3,1.4,0.5,3.2,0.5,5.3v0.5h-18.9v0.1c0.6,1.4,1.4,2.4,2.5,2.9
			c1,0.5,2,0.8,2.9,0.8h0.4c1.2,0,2.3-0.7,3.4-2.1h9.2v0.1c-3.4,6-7.7,9-12.9,9c-4.9,0-8.6-1.4-11.2-4.3c-2.6-2.9-3.9-6-3.9-9.4
			c0-3.9,1.4-7.3,4.1-9.9S147.9,21.7,152,21.6z M147.3,32.5h9.4v-0.1c0-0.7-0.5-1.5-1.5-2.3c-0.9-0.5-1.9-0.7-2.9-0.7
			C149.5,29.4,147.8,30.4,147.3,32.5z"/>
		<path class="st0" d="M183.9,21.2h1.2c4.9,0,8.9,2,11.7,6c-0.2,0.3-2.5,1.9-7,4.9c-1.4-1.9-3.2-2.8-5.4-2.8c-2.6,0-4.5,1.5-5.5,4.5
			l-0.1,1.2v0.9c0,2.5,1.3,4.3,4,5.5c0.5,0.1,0.9,0.2,1.3,0.2h0.9c1.7,0,3.4-0.9,5.2-2.7c4.3,2.8,6.6,4.4,6.8,4.7
			c-2.2,2.8-4.8,4.6-7.8,5.6c-1.9,0.4-3.7,0.6-5.2,0.6c-5.8,0-10.3-2.5-13.6-7.6c-1.1-2.2-1.6-4.3-1.6-6.4v-0.4
			c0-4.6,2.1-8.4,6.4-11.5C177.9,22.1,180.8,21.2,183.9,21.2z"/>
		<path class="st0" d="M210.1,31.1l5.6-8.6h11l-8.6,13.1l8.6,13.1h-11l-5.6-8.6v8.6h-10.3V15.2h10.3V31.1z"/>
		<path class="st0" d="M237.7,49.3c-1.6,0-3.3-0.3-4.9-0.9c-4.8-2.4-7.2-6.8-7.2-13.1V35c0-2.5,0.6-4.8,1.7-6.9
			c2.5-3.8,5.8-5.7,9.8-5.7h1.3c2.2,0,4.2,0.8,6.2,2.5v-2.4H255v26.2h-10.3v-1.8h-0.1C242.6,48.5,240.3,49.3,237.7,49.3z
			 M236.5,36.1c0,1.6,0.2,2.8,0.5,3.6c0.6,1.4,1.8,2.2,3.7,2.2c0.4-0.1,0.7-0.1,1-0.1c2.2-0.4,3.3-2.4,3.3-5.9
			c-0.1-2.6-0.3-4.1-0.7-4.4c0-0.9-1.1-1.4-3.3-1.6h-0.6c-0.5,0-1.1,0.1-1.8,0.3c-1.4,0.9-2.1,2.6-2.1,5.1L236.5,36.1L236.5,36.1z"
			/>
		<path class="st0" d="M270.1,49.3c-1.6,0-3.3-0.3-4.9-0.9c-4.8-2.4-7.2-6.8-7.2-13.1V35c0-2.5,0.6-4.8,1.7-6.9
			c2.5-3.8,5.8-5.7,9.8-5.7h1.3c2.2,0,4.2,0.8,6.2,2.5v-2.4h10.3v26.2H277v-1.8h-0.1C275,48.5,272.7,49.3,270.1,49.3z M268.8,36.1
			c0,1.6,0.2,2.8,0.5,3.6c0.6,1.4,1.8,2.2,3.7,2.2c0.4-0.1,0.7-0.1,1-0.1c2.2-0.4,3.3-2.4,3.3-5.9c-0.1-2.6-0.3-4.1-0.7-4.4
			c0-0.9-1.1-1.4-3.3-1.6h-0.6c-0.5,0-1.1,0.1-1.8,0.3c-1.4,0.9-2.1,2.6-2.1,5.1V36.1z"/>
		<path class="st0" d="M308,48.7V35c0-2.5-0.9-4.1-2.7-4.7c-0.4-0.1-0.7-0.1-0.9-0.1h-0.6c-1,0-1.7,1.1-2.3,3.2
			c-0.1,0.3-0.1,0.6-0.1,0.9v14.4h-9.7V22.5h9.7v3.3c1.5-2.8,3.7-4.2,6.6-4.2h0.7c3.2,0,5.9,1.5,8,4.6c0.7-1.2,2.1-2.5,4.1-3.7
			c1-0.6,2.2-0.9,3.5-0.9h0.7c4.2,0,7.1,2.1,8.5,6.4c0.3,1.3,0.4,2.4,0.4,3.5v17.2h-9.6V35c0-2.5-0.9-4.1-2.7-4.7
			c-0.4-0.1-0.7-0.1-0.9-0.1h-0.6c-1,0-1.7,1.1-2.3,3.2c-0.1,0.3-0.1,0.6-0.1,0.9v14.4C317.7,48.7,308,48.7,308,48.7z"/>
	</g>
	<g>
		<path class="st0" d="M33.1,2.6C15.5,2.6,1.3,16.9,1.3,34.4s14.2,31.8,31.8,31.8S64.9,52,64.9,34.4S50.6,2.6,33.1,2.6z M41,51.4
			L41,51.4c-1.5,0.7-3.4,0.1-4.1-1.5l-1.2-2.5c-1.7,0.3-3.5,0.4-5.4,0c-5.6-1.2-10-6-10.5-11.7c-0.8-8.5,6.5-15.5,15-14.4
			c5.8,0.8,10.4,5.4,11.3,11.1c0.8,5-1.4,9.6-4.9,12.4l1.2,2.5C43.2,48.9,42.6,50.7,41,51.4z"/>
		<path class="st0" d="M39.5,32.7L39.5,32.7L39.5,32.7c-0.1-0.8-0.4-1.6-0.8-2.3c-1.6-2.9-5.2-4.2-8.4-3.1c-3.8,1.4-5.6,5.6-4,9.3
			c0.2,0.6,0.6,1.1,0.9,1.5l0,0l0,0c0.4,0.5,0.9,1,1.5,1.4c1.5,1.3,2.7,1.6,4.7,2.6c1.9,0.9,4.2-0.1,4.7-2.1
			c0.6-2.2,1.3-3.6,1.4-5.3C39.6,33.9,39.6,33.3,39.5,32.7z M32.6,37.1c-1.9,0-3.4-1.5-3.4-3.4c0-1.9,1.5-3.4,3.4-3.4
			c1.9,0,3.4,1.5,3.4,3.4C36,35.6,34.5,37.1,32.6,37.1z"/>
	</g>
</g>
</svg>
