<svg width="18" height="18" viewBox="0 0 18 18" fill="none" xmlns="http://www.w3.org/2000/svg">
<path fill-rule="evenodd" clip-rule="evenodd" d="M0.928887 0H15.9149C16.4103 0 16.8438 0.433481 16.8438 0.928887V2.60088C16.8438 3.09629 16.4103 3.52977 15.9149 3.52977H0.928887C0.433481 3.52977 0 3.09629 0 2.60088V0.928887C0 0.433481 0.433481 0 0.928887 0ZM0.928887 9.22695H15.9149C16.4103 9.22695 16.8438 9.66043 16.8438 10.1558V11.8278C16.8438 12.3232 16.4103 12.7567 15.9149 12.7567H0.928887C0.433481 12.7567 0 12.3232 0 11.8278V10.1558C0 9.66043 0.433481 9.22695 0.928887 9.22695ZM9.3508 13.8095H0.928887C0.433481 13.8095 0 14.2429 0 14.7383V16.4103C0 16.9058 0.433481 17.3392 0.928887 17.3392H9.3508C9.84621 17.3392 10.2797 16.9058 10.2797 16.4103V14.7383C10.3416 14.2429 9.90813 13.8095 9.3508 13.8095ZM0.928887 4.58251H16.8438C17.3392 4.58251 17.7727 5.01599 17.7727 5.5114V7.1834C17.7727 7.6788 17.3392 8.11228 16.8438 8.11228H0.928887C0.433481 8.11228 0 7.6788 0 7.1834V5.5114C0 5.01599 0.433481 4.58251 0.928887 4.58251Z" fill="#09A5DB"/>
</svg>
